<svg width="1280" height="832" viewBox="0 0 1280 832" fill="none" xmlns="http://www.w3.org/2000/svg">
  <g clip-path="url(#clip0_125_199)">
    <path d="M1277.86 0C1278.5 1.3913 1279.36 2.78261 1280 4.17391C1277.43 5.42609 1274.85 6.53913 1272.5 7.93043C1234.55 31.7217 1197.03 55.6522 1158.65 79.3044C1150.93 84.0348 1148.78 88.7652 1149.86 95.1652C1155.65 132.452 1160.58 169.739 1166.37 207.026C1173.44 251.687 1180.73 296.209 1188.23 340.87C1198.53 402.226 1209.25 463.583 1219.75 524.939C1228.11 572.939 1236.48 620.939 1244.41 668.939C1252.77 719.443 1260.7 770.087 1268.64 820.73C1268.85 822.122 1267.78 823.652 1267.35 825.044C1266.28 825.461 1264.99 826.017 1263.92 826.435C1261.99 824.487 1260.7 822.261 1258.35 820.591C1224.9 796.8 1191.02 773.287 1157.79 749.496C1150.07 743.93 1141.49 742.678 1130.99 743.513C1078.67 747.687 1026.36 751.583 974.044 755.757C908.221 760.904 842.613 766.191 776.791 771.617C675.377 779.826 573.963 788.035 472.549 796.104C395.578 802.226 318.392 807.93 241.421 814.052C183.531 818.783 125.642 824.07 67.7522 828.661C48.8845 830.191 29.8024 830.47 10.9347 831.304C12.65 827.687 15.2228 825.878 17.7957 824.07C52.9582 800.835 88.1207 777.461 123.498 754.226C129.072 750.47 131.002 746.713 129.715 741.704C128.643 738.365 128.643 734.887 128 731.409C120.281 689.391 112.348 647.513 105.059 605.496C94.124 541.913 83.6182 478.191 72.8979 414.47C64.7505 366.191 56.6031 318.052 48.4557 269.774C42.6667 235.27 37.3066 200.765 31.9465 166.261C28.7304 146.504 25.9431 126.609 22.727 106.852C18.0101 75.687 12.8644 44.6609 8.14747 13.6348C7.71865 11.1304 8.57628 8.48696 8.79068 4.17391C14.1508 7.37391 17.3669 9.32174 20.583 11.4087C56.3887 35.0609 92.4088 58.4348 127.571 82.3652C135.719 87.7913 143.652 89.4609 155.015 88.487C222.124 82.7826 289.233 77.4957 356.342 72.2087C406.941 68.1739 457.541 64.6956 508.141 60.6609C581.253 54.9565 654.365 48.9739 727.692 43.2696C813.883 36.5913 900.288 30.0522 986.694 23.2348C1068.81 16.8348 1150.71 10.1565 1232.62 3.61739C1247.62 2.64348 1262.85 1.25217 1277.86 0ZM1142.14 101.704C1141.28 101.704 1140.21 101.704 1139.35 101.704C1103.12 286.33 1066.67 471.096 1030.43 655.722C1029.36 655.722 1028.29 655.583 1027.22 655.583C1027.22 653.217 1027.22 650.713 1027.22 648.348C1028.5 546.087 1029.79 443.687 1031.29 341.426C1031.93 286.609 1032.79 231.652 1033.43 176.835C1033.43 173.774 1032.36 170.713 1031.72 167.374C1025.29 170.991 1020.78 173.357 1016.28 176.139C985.407 195.339 954.318 214.4 923.873 234.017C917.441 238.191 911.223 243.896 909.079 249.6C873.916 339.061 839.397 428.8 804.663 518.4C802.734 523.13 804.235 526.47 809.595 529.53C843.042 548.591 876.489 567.791 909.936 586.852C913.367 588.8 917.655 589.913 924.302 592.417C920.871 478.748 917.655 367.165 914.225 255.722C915.297 255.583 916.369 255.443 917.655 255.304C918.727 257.252 920.013 259.2 920.442 261.287C931.163 301.774 942.312 342.261 952.603 382.887C971.471 456.209 989.695 529.67 1008.56 603.13C1013.71 623.304 1021 643.478 1027.64 663.513C1028.72 666.574 1031.72 670.052 1035.36 672.139C1066.88 690.922 1099.04 709.287 1130.77 727.93C1134.2 730.017 1137.21 732.383 1142.35 735.861C1136.56 735.722 1133.78 735.722 1131.2 735.583C1103.54 733.635 1076.1 731.687 1048.44 729.739C991.839 725.844 935.022 721.948 878.419 717.913C831.678 714.574 784.938 710.957 738.412 707.478C684.596 703.443 630.781 699.548 576.965 695.652C529.581 692.174 482.198 688.696 434.814 685.217C378.854 681.183 322.895 677.287 266.935 673.113C257.286 672.417 249.782 673.67 242.921 678.261C210.761 699.965 178.171 721.391 146.01 742.957C144.938 743.652 144.295 744.626 142.58 746.296C149.655 746.296 155.444 746.296 161.018 746.296C216.549 745.739 272.295 745.322 327.826 744.765C511.571 743.096 695.102 741.148 878.848 739.617C962.037 738.922 1045.01 738.783 1128.2 738.365C1145.35 738.226 1147.5 736.696 1147.5 725.983C1147.07 692.174 1146.21 658.365 1146 624.557C1144.71 463.165 1143.64 301.913 1142.35 140.522C1142.14 127.443 1142.14 114.504 1142.14 101.704ZM381.427 594.504C380.57 594.087 379.498 593.809 378.64 593.391C379.069 591.165 379.283 588.8 380.141 586.574C396.007 542.47 411.658 498.365 427.739 454.261C444.034 409.6 460.757 364.939 477.695 320.278C480.054 314.296 477.481 310.261 470.62 306.226C436.958 286.609 403.725 266.574 370.278 246.817C368.777 245.843 366.633 245.148 363.846 243.896C363.846 248.765 363.632 252.661 363.846 256.696C366.848 349.496 369.849 442.296 372.637 535.096C373.28 553.183 372.637 571.27 373.065 589.217C373.28 597.426 376.067 598.957 388.503 598.957C390.647 598.957 392.791 598.957 394.935 598.957C558.526 597.287 722.332 595.478 885.923 593.809C893.213 593.67 900.503 593.809 907.792 593.809C908.007 593.252 908.007 592.557 908.221 592C903.933 591.165 899.859 590.052 895.571 589.357C760.71 567.791 625.849 546.365 491.203 524.661C480.911 522.991 474.265 524.522 467.833 529.53C450.68 542.887 433.313 556.104 415.947 569.183C404.583 577.809 392.791 586.017 381.427 594.504ZM148.583 90.713C148.369 91.2696 148.154 91.9652 147.94 92.5217C150.941 93.0783 153.943 94.0522 156.945 94.1913C209.474 98.3652 262.218 102.539 314.747 106.713C375.853 111.583 436.958 116.313 498.064 121.322C587.471 128.417 676.878 135.652 766.285 142.748C849.689 149.426 933.092 155.826 1016.5 162.783C1027.22 163.617 1034.93 162.087 1042.01 157.078C1071.38 135.93 1100.97 114.922 1130.56 93.913C1133.35 91.9652 1135.71 89.8783 1139.78 86.5391C807.665 87.9304 478.124 89.3217 148.583 90.713ZM138.506 742.261C139.578 739.617 140.65 737.948 141.079 736.139C148.369 698.574 155.444 661.009 162.734 623.443C167.665 598.539 172.811 573.496 178.385 548.591C187.176 508.383 196.824 468.174 204.972 427.965C213.333 386.922 219.766 345.739 227.913 304.835C236.275 263.096 245.494 221.496 255.142 180.035C257.072 171.548 252.784 165.843 244.208 160.278C212.261 139.687 180.315 119.096 148.369 98.6435C146.439 97.3913 143.652 96.5565 138.292 94.0522C138.506 311.374 138.506 526.47 138.506 742.261ZM1016.07 167.513C1015.85 166.678 1015.85 165.843 1015.64 165.009C763.926 165.009 512.429 165.009 258.787 165.009C262.218 167.791 264.576 169.739 267.149 171.548C290.734 187.548 314.104 203.965 338.332 219.548C373.494 242.226 358.271 240.139 407.585 234.713C488.201 225.67 568.818 216.904 649.648 208.139C755.565 196.591 861.481 184.904 967.611 173.357C983.477 171.548 999.772 169.461 1016.07 167.513ZM263.29 175.583C262.432 175.583 261.789 175.583 260.931 175.583C258.144 339.339 255.357 503.235 252.355 667.687C255.142 666.852 256.429 666.713 257.072 666.296C292.235 645.287 327.397 624.417 362.131 602.991C365.561 600.765 367.491 595.896 366.633 592.557C354.841 543.722 342.62 495.026 330.399 446.191C313.89 379.687 297.38 313.043 280.871 246.539C274.868 222.887 269.079 199.235 263.29 175.583ZM1024.43 668.383C1020.14 665.043 1017.14 662.4 1013.92 660.035C986.479 640.835 958.821 621.913 931.806 602.435C924.945 597.426 917.655 596.452 908.007 597.426C826.962 606.33 745.916 615.235 664.871 624C544.161 637.217 423.451 650.574 302.955 663.791C293.735 664.765 284.516 666.017 275.297 667.13C275.511 667.409 275.511 667.826 275.725 668.104C524.436 668.383 773.575 668.383 1024.43 668.383ZM376.496 242.783C376.282 243.339 376.281 243.896 376.067 244.452C378.211 245.009 380.141 245.565 382.285 245.983C452.824 257.113 523.364 268.104 593.903 279.235C660.583 289.67 727.477 300.243 794.158 310.678C801.876 311.93 808.737 311.791 814.526 307.478C843.471 286.609 872.415 266.017 901.575 245.287C903.719 243.757 905.434 241.948 908.65 239.026C729.621 240.278 553.166 241.53 376.496 242.783Z" fill="#1D1A1D"/>
    <path d="M1277.86 0C1262.85 1.25217 1247.62 2.64348 1232.62 3.89565C1150.71 10.4348 1068.6 17.113 986.694 23.513C900.503 30.3304 814.097 36.7304 727.692 43.5478C654.58 49.2522 581.467 55.2348 508.141 60.9391C457.541 64.8348 406.941 68.4522 356.342 72.4869C289.233 77.7739 221.91 83.0609 155.015 88.7652C143.652 89.7391 135.719 88.0696 127.571 82.6435C92.4087 58.713 56.3886 35.3391 20.5829 11.687C17.5812 9.46087 14.1508 7.51304 8.79062 4.17391C8.57621 8.48696 7.71859 11.1304 8.1474 13.6348C12.8643 44.6609 18.01 75.687 22.9414 106.713C26.1575 126.47 28.9447 146.365 32.1608 166.122C37.5209 200.626 43.0955 235.13 48.67 269.635C56.603 317.913 64.9648 366.191 73.1122 414.33C83.8325 478.052 94.3384 541.635 105.273 605.357C112.563 647.374 120.496 689.391 128.214 731.269C128.858 734.748 129.072 738.226 129.93 741.565C131.43 746.574 129.501 750.33 123.712 754.087C88.335 777.183 53.1725 800.556 18.01 823.93C15.4372 825.739 12.8643 827.548 11.1491 831.165C30.0168 830.33 49.3132 830.052 67.9665 828.522C125.856 823.93 183.745 818.504 241.635 813.913C318.606 807.652 395.792 802.087 472.764 795.965C574.178 787.896 675.591 779.687 777.005 771.478C842.828 766.191 908.436 760.904 974.258 755.617C1026.57 751.443 1078.89 747.409 1131.2 743.374C1141.71 742.539 1150.28 743.791 1158 749.356C1191.24 773.287 1225.11 796.8 1258.56 820.452C1260.92 822.122 1262.42 824.348 1264.13 826.296C1265.21 825.878 1266.49 825.322 1267.56 824.904C1267.99 823.513 1269.07 821.983 1268.85 820.591C1260.92 769.948 1252.98 719.443 1244.62 668.8C1236.69 620.8 1228.11 572.8 1219.97 524.8C1209.46 463.443 1198.74 402.087 1188.45 340.73C1180.94 296.209 1173.44 251.548 1166.58 206.887C1160.79 169.6 1155.65 132.313 1150.07 95.0261C1149 88.6261 1151.36 83.8956 1158.86 79.1652C1197.24 55.6522 1234.76 31.5826 1272.71 7.7913C1274.85 6.4 1277.64 5.28696 1280.21 4.03478C1280.21 168.348 1280.21 332.8 1280.21 497.113C1279.79 498.643 1278.93 500.174 1278.93 501.843C1278.71 561.67 1278.28 621.496 1278.28 681.461C1278.28 685.356 1279.57 689.252 1280.21 693.009C1280.21 739.339 1280.21 785.67 1280.21 831.861C853.548 831.861 426.881 831.861 0.214405 831.861C0 554.713 0 277.287 0 0C426.023 0 851.833 0 1277.86 0Z" fill="#F4ECE0"/>
    <path d="M1280 693.148C1279.36 689.252 1278.07 685.357 1278.07 681.6C1278.07 621.774 1278.5 561.948 1278.71 501.983C1278.71 500.452 1279.57 498.922 1280 497.252C1280 562.504 1280 627.757 1280 693.148Z" fill="#1D1A1D"/>
    <path d="M1142.14 101.704C1142.14 114.504 1142.14 127.443 1142.14 140.243C1143.21 301.635 1144.5 462.887 1145.78 624.278C1146 658.087 1146.85 691.896 1147.28 725.704C1147.5 736.417 1145.14 737.948 1127.99 738.087C1044.8 738.504 961.823 738.644 878.633 739.339C694.888 740.87 511.357 742.817 327.611 744.487C272.08 745.044 216.335 745.461 160.804 746.017C155.23 746.017 149.441 746.017 142.365 746.017C144.08 744.348 144.724 743.374 145.796 742.678C178.171 721.113 210.546 699.687 242.707 677.983C249.568 673.391 257.072 672.139 266.72 672.835C322.68 677.009 378.64 680.904 434.6 684.939C481.983 688.417 529.367 691.896 576.751 695.374C630.566 699.27 684.382 703.165 738.198 707.2C784.938 710.678 831.464 714.296 878.204 717.635C934.807 721.67 991.625 725.565 1048.23 729.461C1075.89 731.409 1103.33 733.357 1130.99 735.304C1133.56 735.444 1136.35 735.444 1142.14 735.583C1136.99 731.965 1133.99 729.6 1130.56 727.652C1098.83 709.009 1066.88 690.644 1035.15 671.861C1031.5 669.635 1028.5 666.296 1027.43 663.235C1020.57 643.2 1013.49 623.165 1008.35 602.852C989.266 529.53 971.042 456.07 952.389 382.609C942.097 341.983 930.948 301.496 920.228 261.009C919.585 258.922 918.298 256.974 917.441 255.026C916.369 255.165 915.297 255.304 914.01 255.443C917.441 366.887 920.657 478.47 924.087 592.139C917.655 589.635 913.153 588.383 909.722 586.574C876.275 567.513 842.828 548.313 809.38 529.252C804.02 526.191 802.519 522.852 804.449 518.122C839.397 428.522 873.702 338.922 908.864 249.322C911.008 243.617 917.226 237.913 923.658 233.739C954.104 214.122 985.193 195.061 1016.07 175.861C1020.36 173.217 1025.07 170.713 1031.5 167.096C1032.15 170.435 1033.22 173.496 1033.22 176.557C1032.58 231.374 1031.72 286.33 1031.08 341.148C1029.79 443.409 1028.29 545.809 1027 648.07C1027 650.435 1027 652.939 1027 655.304C1028.07 655.304 1029.15 655.444 1030.22 655.444C1066.45 470.817 1102.9 286.052 1139.14 101.426C1140.21 101.704 1141.07 101.704 1142.14 101.704Z" fill="#F4ECE0"/>
    <path d="M381.427 594.504C393.005 586.157 404.583 577.809 415.732 569.322C433.099 556.104 450.466 542.887 467.618 529.67C474.05 524.661 480.697 523.13 490.988 524.8C625.635 546.504 760.496 567.93 895.357 589.496C899.645 590.191 903.719 591.165 908.007 592.139C907.792 592.696 907.792 593.391 907.578 593.948C900.288 593.948 892.998 593.948 885.709 593.948C722.117 595.617 558.312 597.426 394.72 599.096C392.576 599.096 390.432 599.235 388.288 599.096C375.853 598.957 373.065 597.565 372.851 589.357C372.422 571.27 372.851 553.183 372.422 535.235C369.635 442.435 366.633 349.635 363.631 256.835C363.417 252.939 363.631 249.043 363.631 244.035C366.419 245.287 368.348 245.983 370.064 246.957C403.511 266.713 436.744 286.748 470.405 306.365C477.266 310.4 479.839 314.435 477.481 320.417C460.543 365.078 443.819 409.739 427.524 454.4C411.444 498.504 395.792 542.609 379.926 586.713C379.069 588.939 379.069 591.165 378.425 593.53C379.497 593.67 380.355 594.087 381.427 594.504Z" fill="#F4ECE0"/>
    <path d="M148.583 90.713C478.124 89.3217 807.665 87.9304 1139.99 86.5391C1135.92 89.8783 1133.56 91.9652 1130.77 93.913C1101.19 114.922 1071.6 135.93 1042.22 157.078C1035.15 162.087 1027.43 163.757 1016.71 162.783C933.306 155.826 849.903 149.426 766.499 142.748C677.092 135.652 587.685 128.417 498.278 121.322C437.172 116.452 376.067 111.583 314.961 106.713C262.432 102.539 209.688 98.3652 157.159 94.1913C154.157 93.913 151.156 93.0783 148.154 92.5217C148.154 91.9652 148.368 91.2696 148.583 90.713Z" fill="#F4ECE0"/>
    <path d="M138.506 742.261C138.506 526.469 138.506 311.374 138.506 94.1913C143.866 96.5565 146.439 97.3913 148.583 98.7826C180.529 119.235 212.261 139.826 244.422 160.278C252.998 165.843 257.286 171.548 255.357 180.035C245.709 221.635 236.489 263.235 228.127 304.835C219.98 345.878 213.548 387.061 205.186 427.965C197.039 468.174 187.39 508.383 178.6 548.591C173.24 573.496 167.879 598.4 162.948 623.443C155.444 661.009 148.583 698.574 141.293 736.139C140.65 737.948 139.578 739.617 138.506 742.261Z" fill="#F4ECE0"/>
    <path d="M1016.07 167.513C999.772 169.461 983.477 171.548 967.183 173.217C861.266 184.904 755.35 196.452 649.219 208C568.603 216.904 487.772 225.53 407.156 234.574C357.842 240.139 373.065 242.226 337.903 219.409C313.675 203.687 290.519 187.409 266.72 171.409C264.147 169.6 261.789 167.652 258.358 164.87C512 164.87 763.712 164.87 1015.21 164.87C1015.85 165.843 1015.85 166.678 1016.07 167.513Z" fill="#F4ECE0"/>
    <path d="M263.29 175.583C269.079 199.235 274.868 222.887 280.871 246.539C297.38 313.043 313.89 379.687 330.399 446.191C342.62 495.026 354.841 543.722 366.633 592.557C367.491 595.896 365.776 600.904 362.131 602.991C327.612 624.278 292.235 645.287 257.072 666.296C256.429 666.713 255.142 666.852 252.355 667.687C255.142 503.235 258.144 339.478 260.931 175.583C261.575 175.443 262.432 175.583 263.29 175.583Z" fill="#F4ECE0"/>
    <path d="M1024.43 668.383C773.574 668.383 524.435 668.383 275.511 668.383C275.296 668.104 275.296 667.687 275.082 667.409C284.301 666.296 293.521 665.043 302.74 664.07C423.451 650.713 544.161 637.496 664.657 624.278C745.702 615.374 826.747 606.609 907.792 597.704C917.44 596.591 924.516 597.704 931.591 602.713C958.606 622.052 986.265 641.113 1013.71 660.313C1017.14 662.4 1020.14 665.043 1024.43 668.383Z" fill="#F4ECE0"/>
    <path d="M376.496 242.783C553.166 241.53 729.622 240.278 908.864 239.026C905.648 241.948 903.933 243.757 901.789 245.287C872.844 266.017 843.685 286.748 814.74 307.478C808.737 311.791 801.876 311.791 794.372 310.678C727.692 300.104 660.797 289.67 594.117 279.235C523.578 268.104 453.039 257.113 382.499 245.983C380.355 245.704 378.426 245.009 376.281 244.452C376.281 243.896 376.496 243.339 376.496 242.783Z" fill="#F4ECE0"/>
  </g>
  <defs>
    <clipPath id="clip0_125_199">
      <rect width="1280" height="832" fill="white"/>
    </clipPath>
  </defs>
</svg>
